Coordinates
nRows=5
nColumns=38

# SIMM Motion File Header:
name Coordinates
datacolumns 38
datarows 5
otherdata 1
range 2.59300000000000000000 2.59700000000000000000

Units are S.I. units (second, meters, Newtons, ...)
Angles are in degrees.

endheader
time	pelvis_tilt	pelvis_list	pelvis_rotation	pelvis_tx	pelvis_ty	pelvis_tz	hip_flexion_r	hip_adduction_r	hip_rotation_r	knee_angle_r	ankle_angle_r	subtalar_angle_r	mtp_angle_r	hip_flexion_l	hip_adduction_l	hip_rotation_l	knee_angle_l	ankle_angle_l	subtalar_angle_l	mtp_angle_l	lumbar_extension	lumbar_bending	lumbar_rotation	arm_flex_r	arm_add_r	arm_rot_r	elbow_flex_r	pro_sup_r	wrist_flex_r	wrist_dev_r	arm_flex_l	arm_add_l	arm_rot_l	elbow_flex_l	pro_sup_l	wrist_flex_l	wrist_dev_l
      2.59300000000000000000	     -4.66261664396120960000	      5.19227198607887170000	      2.24052436233245980000	      0.78746193503169837000	      1.03473898453884130000	     -0.46259013906744245000	     -3.78474309322931960000	     -5.35109210908048370000	     -7.58290635650485180000	    -38.62083723492319400000	    -19.76737608514269000000	      0.00000000000008148959	      0.00000000000003589546	     20.20302329369376400000	      4.77347299469956440000	      1.04129710271484590000	    -15.07011279921165900000	     -9.72550085744254390000	     -0.00000000000002386204	     -0.00000000000006539318	     -2.07602675422333990000	     -2.29836669068724970000	      2.36086393321537180000	    -12.91923383376161600000	    -16.03066061788220900000	      7.13438130752934720000	    112.75471376234697000000	     79.90672453442525100000	      0.00000000000001046630	      0.00000000000003517242	    -45.00634291340660600000	    -40.72446640465177100000	     13.51737947551574600000	    118.25868193064534000000	     65.32855318304542900000	      0.00000000000000219505	     -0.00000000000000193269
      2.59399999999999990000	     -4.65512836544612260000	      5.19197582557099490000	      2.26565547617597930000	      0.78746841131507794000	      1.03436469268191680000	     -0.46272487150128777000	     -3.68455252871463610000	     -5.33286676818167480000	     -7.46551198851231580000	    -38.96349741902957900000	    -19.68793730877521500000	      0.00000000000008185988	      0.00000000000003608488	     20.19904332372035300000	      4.78830911743132770000	      1.02681268166635830000	    -15.07301906249875000000	     -9.81776220493573250000	     -0.00000000000002395210	     -0.00000000000006558936	     -2.06839402900219400000	     -2.31708449961202460000	      2.32050188827283990000	    -12.97501819269365500000	    -16.02652175664585200000	      7.14480518886248370000	    112.69696165988803000000	     79.92065770135408800000	      0.00000000000001052130	      0.00000000000003536440	    -44.92592733163930800000	    -40.70114863416854700000	     13.53271390862767000000	    118.27439044035111000000	     65.34010025321485700000	      0.00000000000000220452	     -0.00000000000000195070
      2.59500000000000020000	     -4.64641484862314600000	      5.19177528494094440000	      2.28989867829062370000	      0.78747449921073731000	      1.03398258454600730000	     -0.46285740616682547000	     -3.58414045327248760000	     -5.31412756293338440000	     -7.34775283450350700000	    -39.30729478015357600000	    -19.60648747438535400000	      0.00000000000008223008	      0.00000000000003627411	     20.19540522921276000000	      4.80287060753081540000	      1.00806652691511480000	    -15.08473127440401200000	     -9.90897286919681260000	     -0.00000000000002404152	     -0.00000000000006578548	     -2.06205763434450920000	     -2.33608326935722490000	      2.28013035757475400000	    -13.03067585031385500000	    -16.02199847865196200000	      7.15608471874022630000	    112.63705310944385000000	     79.93220082276822300000	      0.00000000000001057657	      0.00000000000003555554	    -44.84317710991845700000	    -40.67799043955764700000	     13.54952429837222100000	    118.28921187246706000000	     65.35049721761031100000	      0.00000000000000221340	     -0.00000000000000196978
      2.59600000000000010000	     -4.63644440884780360000	      5.19163610896755840000	      2.31330988708795320000	      0.78748020048388134000	      1.03359273029885860000	     -0.46298785564723866000	     -3.48356454751101820000	     -5.29488941191822530000	     -7.22993560821137220000	    -39.65216219138341800000	    -19.52312928984125400000	      0.00000000000008260097	      0.00000000000003646353	     20.19203379799401800000	      4.81714612290247150000	      0.98531763942131378000	    -15.10519316446608700000	     -9.99879527764153590000	     -0.00000000000002413140	     -0.00000000000006598084	     -2.05706135327177900000	     -2.35531698602632120000	      2.23968729913064600000	    -13.08619627407243700000	    -16.01711501480951900000	      7.16823798306807450000	    112.57501786681657000000	     79.94125908935900800000	      0.00000000000001063198	      0.00000000000003574610	    -44.75810911077339700000	    -40.65500293631164700000	     13.56780781822769900000	    118.30316970625630000000	     65.35979468997364000000	      0.00000000000000222223	     -0.00000000000000198863
      2.59700000000000000000	     -4.62518769120405700000	      5.19151610787695090000	      2.33599238490167240000	      0.78748550915954407000	      1.03319519780012350000	     -0.46311640764546896000	     -3.38289422416169040000	     -5.27515869017285420000	     -7.11240929187663080000	    -39.99801986420713000000	    -19.43796517494957100000	      0.00000000000008297171	      0.00000000000003665200	     20.18886624505434900000	      4.83113289193940790000	      0.95888476130896538000	    -15.13436622936633000000	    -10.08686314247233900000	     -0.00000000000002422194	     -0.00000000000006617542	     -2.05344884461462130000	     -2.37473083719400700000	      2.19906655810123740000	    -13.14156530956221400000	    -16.01189517278417900000	      7.18128169552275700000	    112.51088927850098000000	     79.94774436635661600000	      0.00000000000001068714	      0.00000000000003593718	    -44.67074784629334500000	    -40.63219437899697100000	     13.58756085114046600000	    118.31629175331452000000	     65.36804370559659100000	      0.00000000000000223033	     -0.00000000000000200757
